HIERARCHY
ROOT Joint1
{
	OFFSET 0.000000 0.000000 0.000000
	CHANNELS 6 Xposition Yposition Zposition Xrotation Yrotation Zrotation
	JOINT Joint2
	{
		OFFSET -0.000000 0.000000 1.456275
		CHANNELS 6 Xposition Yposition Zposition Xrotation Yrotation Zrotation
		JOINT Joint3
		{
			OFFSET -0.000000 0.000002 1.471446
			CHANNELS 6 Xposition Yposition Zposition Xrotation Yrotation Zrotation
			JOINT Joint4
			{
				OFFSET 0.625745 0.000000 0.917755
				CHANNELS 6 Xposition Yposition Zposition Xrotation Yrotation Zrotation
				JOINT Joint5
				{
					OFFSET -0.629534 0.000001 0.940221
					CHANNELS 6 Xposition Yposition Zposition Xrotation Yrotation Zrotation
					JOINT Joint6
					{
						OFFSET -0.000001 0.113772 1.960660
						CHANNELS 6 Xposition Yposition Zposition Xrotation Yrotation Zrotation
						JOINT Joint7
						{
							OFFSET -0.669733 -0.113771 0.388340
							CHANNELS 6 Xposition Yposition Zposition Xrotation Yrotation Zrotation
							End Site
							{
								OFFSET 0.005509 0.005509 0.438980
							}
						}
					}
				}
			}
		}
	}
}
MOTION
Frames: 12
Frame Time: 0.041667
0.000000 0.000000 0.000000 -0.000000 1.019410 -17.572675 -0.000000 0.000000 1.456275 0.000000 2.585817 0.000000 -0.000000 0.000002 1.471446 -0.000001 -1.133463 -39.641732 0.625745 0.000000 0.917755 0.000002 69.758477 -0.000005 -0.629534 0.000001 0.940221 -0.000003 1.709735 32.407335 -0.000001 0.113772 1.960660 -88.303889 66.251571 -0.000000 -0.669733 -0.113771 0.388339 0.212356 2.988452 70.557186 
0.000000 0.000000 0.000000 -0.000000 1.019410 -17.964647 -0.000000 -0.000000 1.456275 0.000000 3.647078 -0.000000 -0.000000 0.000002 1.471446 -0.000001 -1.133463 -40.525408 0.625745 0.000000 0.917755 -0.000001 68.302206 0.000005 -0.629533 0.000001 0.940221 -0.000001 1.709736 33.130700 -0.000001 0.113772 1.960660 -88.303889 65.722204 -0.000011 -0.669733 -0.113771 0.388340 0.223074 2.965330 69.120606 
0.000000 0.000000 0.000000 -0.000000 1.019410 -18.485794 -0.000000 0.000000 1.456275 -0.000000 5.058072 0.000000 -0.000000 0.000002 1.471446 -0.000001 -1.133463 -41.700289 0.625744 0.000000 0.917755 0.000003 66.366025 0.000002 -0.629534 0.000001 0.940221 -0.000002 1.709737 34.092445 -0.000000 0.113772 1.960661 -88.303896 65.018388 -0.000009 -0.669733 -0.113771 0.388341 0.236421 2.934183 67.210660 
0.000000 0.000000 0.000000 -0.000000 1.019410 -19.087112 -0.000000 0.000000 1.456275 -0.000000 6.686138 -0.000000 -0.000000 0.000002 1.471446 -0.000002 -1.133463 -43.055914 0.625745 0.000000 0.917755 -0.000005 64.131979 0.000006 -0.629533 0.000001 0.940221 -0.000001 1.709735 35.202143 -0.000001 0.113772 1.960660 -88.303889 64.206292 -0.000008 -0.669733 -0.113771 0.388340 0.250523 2.897702 65.006954 
0.000000 0.000000 0.000000 -0.000000 1.019410 -19.688428 -0.000000 0.000000 1.456275 0.000000 8.314200 -0.000000 -0.000000 0.000002 1.471446 -0.000001 -1.133464 -44.411546 0.625745 0.000000 0.917755 -0.000003 61.897940 0.000003 -0.629533 0.000001 0.940221 0.000001 1.709738 36.311847 -0.000001 0.113772 1.960661 -88.303889 63.394216 -0.000008 -0.669733 -0.113772 0.388340 0.263202 2.860721 62.803344 
0.000000 0.000000 0.000000 -0.000000 1.019410 -20.209575 -0.000000 0.000000 1.456275 0.000000 9.725198 -0.000000 -0.000000 0.000002 1.471446 -0.000002 -1.133463 -45.586441 0.625745 0.000000 0.917755 -0.000005 59.961753 0.000000 -0.629534 0.000001 0.940221 -0.000000 1.709735 37.273592 -0.000001 0.113772 1.960660 -88.303889 62.690400 -0.000003 -0.669733 -0.113771 0.388340 0.273035 2.828295 60.893588 
0.000000 0.000000 0.000000 -0.000000 1.019410 -20.601560 -0.000000 -0.000000 1.456275 -0.000000 10.786492 -0.000000 -0.000000 0.000002 1.471446 -0.000002 -1.133465 -46.470141 0.625745 0.000000 0.917755 -0.000004 58.505433 0.000001 -0.629534 0.000001 0.940221 -0.000001 1.709734 37.996978 -0.000001 0.113772 1.960660 -88.303889 62.161026 -0.000006 -0.669733 -0.113771 0.388339 0.279713 2.803694 59.457200 
0.000000 0.000000 0.000000 -0.000000 1.019410 -20.940086 -0.000000 0.000000 1.456275 0.000001 11.703050 0.000002 -0.000000 0.000002 1.471445 -0.000001 -1.133463 -47.233323 0.625745 0.000000 0.917755 -0.000001 57.247726 0.000002 -0.629534 0.000001 0.940221 0.000003 1.709736 38.621708 -0.000001 0.113772 1.960661 -88.303889 61.703833 -0.000003 -0.669733 -0.113771 0.388341 0.284985 2.782321 58.216721 
0.000000 0.000000 0.000000 -0.000000 1.019410 -21.332040 -0.000000 0.000000 1.456275 -0.000000 12.764260 0.000002 -0.000000 0.000002 1.471446 -0.000002 -1.133464 -48.116958 0.625744 0.000000 0.917755 -0.000004 55.791526 0.000000 -0.629534 0.000001 0.940221 -0.000000 1.709735 39.345035 -0.000001 0.113772 1.960660 -88.303889 61.174501 -0.000005 -0.669733 -0.113771 0.388340 0.290508 2.757439 56.780493 
0.000000 0.000000 0.000000 -0.000000 1.019410 -21.853144 -0.000000 -0.000000 1.456275 0.000000 14.175146 -0.000000 -0.000000 0.000002 1.471446 -0.000002 -1.133466 -49.291757 0.625744 0.000000 0.917755 -0.000004 53.855495 -0.000000 -0.629533 0.000001 0.940221 -0.000001 1.709735 40.306705 -0.000000 0.113772 1.960660 -88.303889 60.470731 -0.000009 -0.669733 -0.113771 0.388341 0.296876 2.724164 54.871079 
0.000000 0.000000 0.000000 -0.000000 1.019410 -22.454503 -0.000000 0.000000 1.456275 -0.000000 15.803323 0.000002 -0.000000 0.000002 1.471446 -0.000002 -1.133467 -50.647478 0.625745 0.000000 0.917755 0.000001 51.621296 0.000005 -0.629534 0.000001 0.940221 -0.000001 1.709735 41.416484 -0.000001 0.113772 1.960660 -88.303889 59.658595 -0.000006 -0.669733 -0.113771 0.388340 0.302846 2.685520 52.667664 
0.000000 0.000000 0.000000 -0.000000 1.019410 -23.055968 -0.000000 -0.000000 1.456275 -0.000000 17.431771 -0.000000 -0.000000 0.000002 1.471445 -0.000002 -1.133463 -52.003435 0.625744 0.000000 0.917755 0.000001 49.386724 -0.000001 -0.629534 0.000001 0.940221 -0.000000 1.709736 42.526448 -0.000001 0.113772 1.960661 -88.303889 58.846314 -0.000003 -0.669733 -0.113771 0.388340 0.307322 2.646677 50.463941 
